<?xml version="1.0" encoding="UTF-8" standalone="no"?>
<!-- Created with Inkscape (http://www.inkscape.org/) -->

<svg
   xmlns:dc="http://purl.org/dc/elements/1.1/"
   xmlns:cc="http://creativecommons.org/ns#"
   xmlns:rdf="http://www.w3.org/1999/02/22-rdf-syntax-ns#"
   xmlns:svg="http://www.w3.org/2000/svg"
   xmlns="http://www.w3.org/2000/svg"
   xmlns:xlink="http://www.w3.org/1999/xlink"
   xmlns:sodipodi="http://sodipodi.sourceforge.net/DTD/sodipodi-0.dtd"
   xmlns:inkscape="http://www.inkscape.org/namespaces/inkscape"
   width="256"
   height="256"
   viewBox="0 0 256 256"
   id="svg2"
   version="1.1"
   inkscape:version="0.91 r13725"
   sodipodi:docname="proposedlogo (transparent background).svg"
   inkscape:export-filename="/home/alex/Pictures/Vector/ubuntuwisconsin/proposedlogo (transparent background).png"
   inkscape:export-xdpi="360"
   inkscape:export-ydpi="360">
  <defs
     id="defs4">
    <linearGradient
       id="linearGradient9119">
      <stop
         id="stop9121"
         offset="0"
         style="stop-color:#07b114;stop-opacity:1" />
      <stop
         id="stop9123"
         offset="1"
         style="stop-color:#20b718;stop-opacity:1" />
    </linearGradient>
    <linearGradient
       gradientUnits="userSpaceOnUse"
       xlink:href="#linearGradient9119"
       id="linearGradient9125"
       y2="392.06387"
       x2="284.63126"
       y1="738.72839"
       x1="572.86169" />
    <linearGradient
       gradientUnits="userSpaceOnUse"
       xlink:href="#linearGradient9119"
       id="linearGradient9161"
       y2="328.68198"
       x2="280.54211"
       y1="718.28265"
       x1="517.65814" />
    <filter
       style="color-interpolation-filters:sRGB;"
       inkscape:label="Drop Shadow"
       id="filter4607"
       width="1.5"
       height="1.5"
       x="-0.25"
       y="-0.25">
      <feFlood
         flood-opacity="0.2"
         flood-color="rgb(0,0,0)"
         result="flood"
         id="feFlood4609" />
      <feComposite
         in="flood"
         in2="SourceGraphic"
         operator="in"
         result="composite1"
         id="feComposite4611" />
      <feGaussianBlur
         in="composite1"
         stdDeviation="25"
         result="blur"
         id="feGaussianBlur4613" />
      <feOffset
         dx="0"
         dy="0"
         result="offset"
         id="feOffset4615" />
      <feComposite
         in="SourceGraphic"
         in2="offset"
         operator="over"
         result="composite2"
         id="feComposite4617" />
    </filter>
    <filter
       style="color-interpolation-filters:sRGB;"
       inkscape:label="Drop Shadow"
       id="filter4652">
      <feFlood
         flood-opacity="0.247059"
         flood-color="rgb(0,0,0)"
         result="flood"
         id="feFlood4654" />
      <feComposite
         in="flood"
         in2="SourceGraphic"
         operator="in"
         result="composite1"
         id="feComposite4656" />
      <feGaussianBlur
         in="composite1"
         stdDeviation="25"
         result="blur"
         id="feGaussianBlur4658" />
      <feOffset
         dx="0"
         dy="0"
         result="offset"
         id="feOffset4660" />
      <feComposite
         in="SourceGraphic"
         in2="offset"
         operator="over"
         result="composite2"
         id="feComposite4662" />
    </filter>
  </defs>
  <sodipodi:namedview
     id="base"
     pagecolor="#ffffff"
     bordercolor="#666666"
     borderopacity="1.0"
     inkscape:pageopacity="0"
     inkscape:pageshadow="2"
     inkscape:zoom="2.8284271"
     inkscape:cx="174.89782"
     inkscape:cy="122.82025"
     inkscape:document-units="px"
     inkscape:current-layer="layer1"
     showgrid="true"
     units="px"
     inkscape:showpageshadow="false"
     inkscape:snap-bbox="true"
     inkscape:bbox-nodes="true"
     inkscape:snap-page="true"
     showguides="true"
     inkscape:guide-bbox="true"
     inkscape:snap-bbox-midpoints="true"
     inkscape:window-width="1600"
     inkscape:window-height="836"
     inkscape:window-x="0"
     inkscape:window-y="27"
     inkscape:window-maximized="1"
     inkscape:object-nodes="true"
     inkscape:snap-grids="false">
    <inkscape:grid
       type="xygrid"
       id="grid3336"
       empspacing="4" />
    <sodipodi:guide
       position="128,128"
       orientation="0,1"
       id="guide3499" />
    <sodipodi:guide
       position="128,128"
       orientation="1,0"
       id="guide3501" />
  </sodipodi:namedview>
  <metadata
     id="metadata7">
    <rdf:RDF>
      <cc:Work
         rdf:about="">
        <dc:format>image/svg+xml</dc:format>
        <dc:type
           rdf:resource="http://purl.org/dc/dcmitype/StillImage" />
        <dc:title></dc:title>
      </cc:Work>
    </rdf:RDF>
  </metadata>
  <g
     inkscape:label="Layer 1"
     inkscape:groupmode="layer"
     id="layer1"
     transform="translate(0,-796.36216)">
    <path
       inkscape:connector-curvature="0"
       id="path4497"
       d="m 42.011157,904.44582 c -11.054514,0 -20.010369,8.95674 -20.010369,20.01037 0,11.04834 8.955855,20.00419 20.010369,20.00419 11.048349,0 20.004204,-8.95585 20.004204,-20.00419 0,-11.05363 -8.955855,-20.01037 -20.004204,-20.01037 z"
       style="fill:#dd4814" />
    <path
       style="fill:#dd4814"
       d="m 95.6875,55.78125 c -0.409857,0.273967 -0.80408,0.568907 -1.208984,0.849609 0.748171,0.09593 1.636944,0.396224 2.316406,1.00586 z m -10.677734,8.439453 c -12.086811,11.150674 -21.01947,25.667002 -25.261719,42.080077 6.315356,5.15325 10.357422,12.99922 10.357422,21.79297 0,8.78845 -4.042066,16.63192 -10.357422,21.78516 5.405232,20.94605 18.428622,38.82703 35.939453,50.52734 l 14.62695,-24.50391 c -11.923403,-8.38797 -20.562932,-21.1205 -23.624997,-35.89843 -0.16939,-0.11184 -0.329421,-0.23726 -0.478515,-0.375 -10e-7,0 -0.65659,-0.61217 -1.357422,-1.41211 -0.350416,-0.39996 -0.724195,-0.8525 -1.09375,-1.41211 -0.116736,-0.17678 -0.240513,-0.39448 -0.363282,-0.59766 -0.337716,-0.0785 -0.731737,-0.16401 -0.742187,-0.16601 l -2.013672,-0.26758 c -1.021216,-0.13753 -1.940861,-0.68917 -2.542969,-1.52539 -0.25779,-0.14832 -0.551108,-0.28479 -0.736328,-0.44532 -0.556604,-0.48238 -0.811633,-0.91594 -1.027344,-1.29882 l -0.15625,-0.10743 c -0.310697,-0.21128 -0.58788,-0.46805 -0.822265,-0.76171 l -1.056641,-1.32618 0.365234,0.0625 c -0.463058,-0.08 -0.90696,-0.24628 -1.308593,-0.49023 0,0 -1.087094,-0.60729 -1.777344,-1.89258 -0.69025,-1.28529 -0.658479,-3.67789 0.318359,-5.17187 0.196221,-0.30005 0.217891,-0.39496 0.212891,-0.38086 0.02225,-0.13234 0.05159,-0.26339 0.08789,-0.39258 -0.0256,-0.34508 -0.121088,-0.61333 -0.05469,-1.04492 0.07236,-0.47039 0.178411,-0.45815 0.269531,-0.73828 -0.14034,-0.44071 -0.197949,-0.90358 -0.169921,-1.36524 l 0.05469,-0.89648 c -0.396588,-0.51128 -0.940907,-1.14557 -0.599609,-3.19336 0.18525,-1.11155 0.526368,-1.70334 0.861328,-2.11524 -0.260421,-0.65367 -0.54141,-1.51015 -0.07227,-2.90429 9.48e-4,-0.11753 4.59e-4,-0.26573 -0.0098,-0.45313 -0.02555,-0.46849 -0.07812,-0.9043 -0.07812,-0.9043 -0.161555,-1.29706 0.36385,-2.58467 1.386718,-3.39843 l 0.226563,-0.17969 c 2.78e-4,-0.001 -2.8e-4,-0.003 0,-0.004 0.131626,-0.65812 0.439529,-1.22352 0.800781,-1.71484 -0.08499,-0.20254 -0.04367,-0.45544 -0.105469,-0.67578 -0.06369,-0.0147 -0.166579,0.002 -0.224609,-0.0156 -0.899067,-0.26855 -1.376318,-0.64218 -1.746094,-0.93945 -0.739552,-0.59455 -1.138672,-1.16602 -1.138672,-1.16602 -0.224962,-0.296 -0.404662,-0.623798 -0.533203,-0.972652 0,0 -0.227137,-0.602345 -0.410156,-1.359375 -0.183016,-0.75703 -0.828718,-1.439902 0.08594,-3.726562 0.03733,-0.09333 0.04447,-0.08813 0.08203,-0.173829 -0.03763,-0.820609 0.06352,-1.862705 0.80664,-2.853515 0.672446,-0.89662 1.059248,-1.169162 1.378906,-1.326172 0.05622,-1.125574 0.615617,-2.166199 1.523438,-2.833984 0.104108,-0.27429 0.161477,-0.518005 0.494141,-0.958985 0.293721,-0.38935 0.929016,-0.834017 1.679687,-1.179687 0.03312,-0.06811 0.06829,-0.135195 0.105469,-0.201172 0.0097,-0.0077 0.03489,-0.02325 0.04492,-0.03125 -0.0045,0.002 -0.02294,0.0019 -0.02734,0.0039 0.431733,-0.731507 1.098998,-1.294792 1.892578,-1.597656 L 80.25,82.541016 c 0.284388,-0.25895 0.387938,-0.548815 0.796875,-0.740235 0.334697,-0.15667 0.699707,-0.198512 1.058594,-0.257812 0.201709,-0.22147 0.396727,-0.445296 0.751953,-0.728516 0.283827,-0.2263 0.773917,-0.561649 1.519531,-0.787109 z M 72.486328,109.82422 c -0.02208,0.11771 -4.54e-4,0.13015 0.002,0.0742 5.56e-4,-0.0128 -0.0022,-0.057 -0.002,-0.0742 z"
       transform="translate(0,796.36216)"
       id="path4493"
       inkscape:connector-curvature="0"
       sodipodi:nodetypes="ccccccscccccsccccccccccccscccccccsccccccccccsccscccccsccccccsccccccc" />
    <path
       style="fill:#dd4814"
       d="m 143.90039,41.183594 c -13.82981,0 -26.9041,3.24795 -38.51367,8.99414 l 3.06055,5.484375 c 0.43882,-0.157377 0.90313,-0.231562 1.36914,-0.21875 0.39136,-0.19702 0.75898,-0.405568 1.29687,-0.480468 0.0186,-0.02792 0.0553,-0.07302 0.0762,-0.103516 0.009,-0.003 -0.0168,0.004 -0.008,0 l 0.0156,-0.0078 c 0.10576,-0.15389 0.16196,-0.261804 0.38476,-0.515624 0.18966,-0.21607 0.39733,-0.503704 1.07813,-0.902344 0.45812,-0.26872 1.49933,-0.390519 2.57226,-0.261719 0.0725,-0.05036 0.0382,-0.05026 0.1211,-0.101563 0.15488,-0.09588 0.54889,-0.165951 0.78515,-0.269531 0.39788,-0.349107 0.86516,-0.610034 1.3711,-0.765625 0.14048,-0.13718 0.19502,-0.311287 0.36523,-0.429687 0.69047,-0.48032 1.35304,-0.620303 1.94531,-0.658203 0.34914,-0.284913 0.74677,-0.50457 1.17383,-0.648438 l 0.81445,-0.271484 c 0.40531,-0.134974 0.83071,-0.199707 1.25782,-0.191406 1.21434,0.02564 2.34106,0.637768 3.02343,1.642578 0.41635,0.256135 0.77862,0.591195 1.06641,0.986328 0,0 0.26228,0.354615 0.49609,0.822265 0.041,0.08204 0.0955,0.227919 0.14649,0.324219 1.04272,1.234646 1.1773,2.998394 0.33398,4.376953 -0.0111,0.0267 -0.0252,0.158894 -0.0332,0.183594 -0.0743,0.23422 -0.0541,0.310422 -0.0176,-0.05469 -0.0738,0.73838 -0.38862,1.244598 -0.69531,1.736328 0.63408,0.33811 1.29333,0.699066 1.63476,1.154296 0.40339,0.53787 0.63813,0.973265 0.79297,1.240235 0.15484,0.26696 0.38083,0.423804 -0.14648,-0.103516 0.15757,0.15757 0.1366,0.18242 0.26172,0.34961 0.07,0.04001 0.12465,0.07391 0.18945,0.103515 l 0.31836,-0.01172 c 0.72323,-0.02949 1.43954,0.150949 2.0625,0.519531 l 0.61719,0.367187 0.12109,0.01953 c 0.48093,0.08145 0.94135,0.25593 1.35547,0.513671 0.18831,0.0058 0.38594,-0.06184 0.55859,-0.02344 2.0307,0.45125 2.30698,1.092502 2.56055,1.570312 0.16184,0.10017 0.32132,0.17885 0.47852,0.3125 0.12119,0.0434 0.11197,-0.0015 0.25195,0.06055 0.75861,0.335768 1.7649,1.335586 2.2207,2.404297 0.11217,0.16321 0.40447,0.481594 0.65625,1.341797 0.004,0.01332 -3.6e-4,0.03577 0.002,0.05078 0.85679,-0.0375 1.71412,-0.07031 2.58007,-0.07031 13.8237,0 26.51373,4.809613 36.51563,12.833984 0.0756,-0.02566 0.15326,-0.04883 0.27539,-0.04883 0.89017,1e-5 2.04917,0.445909 2.81055,1.136719 0.0123,0 0.0205,0.0018 0.0332,0.002 -0.26758,-0.23659 -0.4271,-0.331288 -0.375,-0.304688 0.0663,0.03385 0.23867,0.112847 0.41406,0.185547 0.19373,0.08038 0.24987,0.09768 0.38086,0.146485 0.14043,0.0194 0.12486,-0.01356 0.28125,0.02344 0.1998,-0.0313 0.33596,-0.07031 0.79492,-0.07031 0.34394,0 0.76287,5.3e-5 1.42578,0.189453 0.38035,0.10867 0.92238,0.38533 1.46485,0.8125 0.27761,0.11349 0.38699,0.05961 0.76367,0.353515 0.84606,0.66012 1.46843,1.982708 1.54883,2.867188 0.003,0.0341 -0.003,0.0289 0,0.0625 l 0.043,0.06445 c 0.24149,0.356185 0.41987,0.751275 0.52734,1.167969 0.13907,0.08592 0.37273,0.107625 0.5,0.203125 0.1672,0.1254 0.28918,0.400999 0.45508,0.568359 0.1189,0.0127 0.24609,-0.0195 0.36328,0 0.57715,0.09619 1.17217,0.268521 1.85547,0.738281 0.53825,0.37005 1.1174,1.130787 1.46484,2.097657 0.54035,0.5979 1.21289,1.34375 1.21289,1.34375 0.76099,0.87996 1.07052,2.063251 0.83789,3.203125 0.0743,0.209499 0.12989,0.425192 0.16602,0.644531 l 0.22656,1.402344 c 0.13129,0.814155 -0.009,1.648885 -0.40039,2.374995 0,0 -0.0605,0.077 -0.0625,0.082 -0.0127,0.16876 -0.0369,0.33646 -0.0723,0.50196 0.002,-0.0159 -0.0856,-0.27956 -0.0703,-0.31446 -0.004,0.008 -0.0292,0.034 -0.0332,0.043 0.0442,0.2053 0.10503,0.41491 0.11523,0.59961 1.16566,0.25652 2.13333,0.87202 2.49415,1.33594 0.168,0.216 0.3645,0.54856 0.5332,0.88476 0.98156,1.35808 0.74151,1.95181 0.70508,2.78907 -0.0298,0.6847 -0.18584,1.56565 -0.8418,2.47265 -0.0404,0.17295 -0.1395,0.47355 -0.46875,1.00586 0.062,0.20351 0.12769,0.40493 0.1875,0.60938 0.78064,0.23474 1.46354,0.71743 1.94531,1.375 0,0 0.43715,0.63098 0.66797,1.50976 0.10176,-0.13574 0.25866,-0.30351 0.38672,-0.46289 0.0374,-0.28126 0.0781,-0.61719 0.0781,-0.61719 0.0464,-0.65081 0.26187,-1.27824 0.625,-1.82031 0.007,-0.0311 0.0273,-0.14245 0.0274,-0.14258 4.2e-4,-10e-4 0.84667,-1.47751 0.84765,-1.47851 5e-4,-5.3e-4 0.38705,-0.36993 0.58204,-0.50782 0.19498,-0.13786 0.38556,-0.24627 0.5625,-0.33007 0.3016,-0.14284 0.54292,-0.2005 0.76562,-0.25 0.0231,-0.18204 -0.0395,-0.25652 0.33399,-0.87891 0.15171,-0.25286 0.37712,-0.35715 0.5664,-0.55078 0.0353,-0.13556 0.0237,-0.17555 0.0918,-0.37109 0.10235,-0.29378 0.10038,-0.68297 0.93945,-1.53711 0.41954,-0.42706 1.25821,-1.04522 2.4375,-1.13282 l 0,-0.002 c 0.90281,-0.0671 1.65566,0.2538 2.23047,0.60156 2.44021,-0.10601 4.329,2.11168 3.83594,4.50391 0.10226,0.59045 0.0438,0.99957 0.0137,1.31641 -0.0153,0.16041 -0.0286,0.16574 -0.0508,0.29687 -0.001,0.15166 0.0129,0.15998 -0.008,0.39844 -0.0231,0.26536 -0.005,0.55038 -0.28125,1.27539 -0.10015,0.26291 -0.44785,0.71968 -0.81446,1.16015 -0.0191,0.57329 -0.16943,1.13456 -0.43945,1.64063 -6.4e-4,0.005 6.5e-4,0.0106 0,0.0156 -0.0431,0.33508 -0.0346,0.5946 -0.33398,1.32226 -0.10393,0.25261 -0.32131,0.70215 -0.84961,1.22266 -0.31412,0.51074 -0.74612,0.93871 -1.25977,1.24804 l -0.008,0.004 c -0.10074,0.13415 -0.21036,0.26139 -0.32813,0.38086 0.003,0.17032 0.082,0.72461 0.082,0.72461 -0.001,0.78696 -0.2499,1.55361 -0.71093,2.1914 l 18.70312,-0.27539 c -1.40262,-22.03766 -11.02946,-41.821272 -25.82226,-56.369132 -7.60698,2.87397 -16.39365,2.432617 -23.98829,-1.945313 -7.60785,-4.39026 -12.37768,-11.796367 -13.68164,-19.835937 -7.39376,-2.04051 -15.17584,-3.15625 -23.2207,-3.15625 z m 72.99805,68.384766 c 0,0 0.029,-0.17407 -0.008,0.0469 0.003,-0.0156 0.005,-0.0312 0.008,-0.0469 z M 183.60352,83.638672 c 0.009,0.0093 0.0262,0.01248 0.0351,0.02148 -0.0314,-0.0305 0.002,0.0054 -0.0254,-0.02148 z m 3.36914,0.478516 c 0.0538,0.01215 0.31135,0.166053 0.41015,0.189453 -0.022,-0.0101 -0.0577,-0.06427 -0.0781,-0.07227 -0.45558,-0.18618 -0.55724,-0.168087 -0.33203,-0.117187 z"
       transform="translate(0,796.36216)"
       id="path4491"
       inkscape:connector-curvature="0"
       sodipodi:nodetypes="ccccccccscccccccccccccccccccccccccccccccccccsccccccccsscscccccccccccccccccccscccccccccccccscccccccccccccccccccccccccccscccccccccccccc" />
    <path
       inkscape:connector-curvature="0"
       id="path3469"
       d="m 184.84673,853.5265 c 9.56905,5.52595 21.7989,2.25285 27.31954,-7.31622 5.52681,-9.56906 2.25374,-21.79889 -7.31622,-27.3266 -9.56906,-5.52064 -21.79802,-2.2405 -27.3266,7.32857 -5.51976,9.56378 -2.23962,21.79361 7.32328,27.31425 z"
       style="fill:#dd4814" />
    <path
       style="fill:#0e9a57;fill-opacity:1;fill-rule:evenodd;stroke:none;stroke-width:3.47900009;stroke-linecap:butt;stroke-linejoin:miter;stroke-miterlimit:4;stroke-dasharray:none;stroke-opacity:1"
       d="m 122.99414,53.583984 -0.81445,0.271485 c 0,0 -0.82488,0.859599 -1.26563,0.724609 -0.38282,-0.11724 -0.23047,0.552734 -0.23047,0.552734 l -0.26562,-0.373046 c 0,0 -0.45285,-0.315292 -0.49805,0.136718 -0.0452,0.45202 -1.31054,0.722657 -1.31054,0.722657 l -0.27149,0.8125 c 0,0 -0.4068,0.04631 -0.63281,-0.179688 -0.22599,-0.22601 -0.58789,0.179688 -0.58789,0.179688 l 0.18164,1.041015 c 0,0 -0.99527,-0.136718 -1.44727,-0.136718 -0.45203,0 -1.03906,0.226562 -1.03906,0.226562 0,0 0.1345,-0.723487 -0.13672,-0.904297 -0.27121,-0.18081 -0.99386,1.447266 -1.35547,1.447266 -0.36161,0 -1.03905,0.450893 -1.67187,0.496093 -0.63282,0.0452 -0.94922,0.994141 -0.94922,0.994141 l -0.63281,0.0918 -0.36133,-0.498047 c 0,0 -0.22573,0.813345 -0.67774,0.677735 -0.45202,-0.1356 -1.62861,0.678012 -2.62304,0.632812 -0.99445,-0.0452 -1.31055,0.04492 -1.31055,0.04492 0,0 -0.0449,0.678291 -0.67773,0.58789 -0.63284,-0.0904 -1.67298,0.768691 -2.125,0.587891 -0.45202,-0.18081 -1.49107,0.633647 -1.98829,0.498047 -0.497214,-0.13561 -1.355738,0.361884 -1.626949,0.271484 -0.271209,-0.09041 -1.175495,0.451172 -1.537109,0.451172 -0.361615,0 -2.621366,-2.259762 -2.892578,-2.576172 -0.271209,-0.31642 -1.628353,1.129181 -1.402344,1.400391 0.226009,0.27121 -0.497482,0.994141 -0.904297,0.994141 -0.406816,0 -0.677734,0.632812 -0.677734,0.632812 l -1.671875,-0.179687 -0.316406,-0.677735 -0.451172,0.22461 -0.769532,19.166015 c 0,0 0.181654,0.180807 -0.451172,0.316407 -0.632821,0.135609 -0.0918,1.582031 -0.0918,1.582031 l -1.039063,0.0918 c 0,0 -0.407357,-0.318082 -0.859375,-0.363282 -0.452015,-0.0452 -1.445312,1.357422 -1.445312,1.357422 0,0 -0.452836,0.452295 -1.13086,0.271485 -0.678029,-0.1808 -0.722656,0.585937 -0.722656,0.585937 l -2.259766,0.859375 c 0,0 0.224897,0.813334 -0.136718,0.677735 -0.361615,-0.13561 -1.31026,0.949218 -1.671875,0.949218 -0.361615,0 -0.452569,0.814728 -0.542969,1.085938 -0.0904,0.27121 -0.949219,0.767578 -0.949219,0.767578 0,0 0.722942,1.129751 0.361328,0.99414 -0.361613,-0.135599 -1.083984,1.492188 -1.083984,1.492188 0,0 -1.129182,0.542677 -1.400391,0.904297 -0.271212,0.36161 -0.04548,0.858252 0.04492,1.039062 0.09041,0.1808 -0.181913,0.45283 -0.453125,1.13086 -0.271209,0.67803 0.361328,2.394531 0.361328,2.394531 0,0 0.859643,1.131429 1.447266,0.724609 0.587624,-0.40681 0.904297,0.271485 0.904297,0.271485 l 0.859375,0.8125 c 0,0 0.451728,0.904566 0.361328,1.492186 -0.0904,0.58762 0.542129,0.81333 0.677734,0.99414 0.135604,0.18081 0.587052,0.67885 0.722657,1.13086 0.135605,0.45202 -0.723478,0.99412 -1.53711,1.62695 -0.813633,0.63282 0.0918,1.26563 0.0918,1.26563 l -1.990234,1.58203 c 0,0 0.271212,2.1699 0,2.80273 -0.271209,0.63283 0.408203,1.7168 0.408203,1.7168 l 0,1.53711 c 0,0.31641 -1.04046,0.85797 -1.13086,1.40039 -0.0904,0.54242 0.722657,1.53711 0.722657,1.53711 l -0.134766,2.16992 0.40625,-0.17968 0.316406,0.76757 c 0,0 -0.768975,1.2659 -0.859375,1.85352 -0.09041,0.58763 0.498047,1.2207 0.498047,1.2207 l -0.542969,0.27149 c 0,0 8.51e-4,0.6314 -0.767578,1.80664 -0.76843,1.17524 0.271485,1.80859 0.271485,1.80859 l 1.039062,0.18164 1.943359,2.43946 0.994141,0.67968 c 0,0 0.270911,1.17383 0.994141,1.17383 0.723227,0 0.859375,0.9043 0.859375,0.9043 l 2.035156,0.27148 c 0,0 3.163222,0.45255 3.298828,1.49219 0.135604,1.03964 2.304688,3.07226 2.304688,3.07226 l 2.578125,0.9043 c 0,0 1.310249,1.80917 2.304687,1.40235 0.994439,-0.40681 1.039063,0.99414 1.039063,0.99414 l 0.814453,0.49609 -0.04492,1.08594 c 0,0 0.631137,1.08454 0.585937,1.31054 -0.0452,0.22601 1.402344,2.48633 1.402344,2.48633 0,0 0.813316,2.1691 1.94336,1.67188 1.130052,-0.49721 1.220702,0.94922 1.220702,0.94922 l 2.0332,2.08007 c 0,0 2.44141,0.58734 2.75782,0.67774 0.31641,0.0904 3.79687,3.61523 3.79687,3.61523 0.52482,0.0105 1.24319,-0.23216 1.24219,0.65625 0,0 -0.36023,0.90096 -0.22461,1.12696 0.13559,0.22601 0.9707,4.32031 0.9707,4.32031 0,0 0.13673,0.76757 -0.17969,1.08398 -0.31641,0.31641 0.27149,3.30078 0.27149,3.30078 l -0.0449,2.34961 0.63281,0.94922 -0.0918,1.94336 c 0,0 0.40789,2.89341 1.71875,3.07422 1.31084,0.1808 1.44532,2.62109 1.44532,2.62109 l 0.59179,1.35352 c 7.47745,3.47927 15.81865,5.43555 24.61328,5.43555 30.52921,0 55.57439,-23.39909 58.19727,-53.25782 l 5.75586,0.084 c 0.65621,-1.63191 1.16839,-3.80191 1.20117,-4.19531 0.0452,-0.54242 -0.36132,-0.31641 -0.67773,-0.63282 -0.31641,-0.31642 -0.94922,-0.40625 -0.94922,-0.40625 0,0 -0.81446,-0.54296 -0.81446,-1.17578 0,-0.63283 -0.18164,-1.03906 -0.18164,-1.03906 0,0 -0.58706,1.49024 -1.03906,1.17383 -0.45203,-0.31641 -0.8125,-0.18054 -1.12891,0.27148 -0.31642,0.45202 -0.13699,0.72322 -0.4082,0.63282 -0.27122,-0.0904 -0.13476,-0.67774 -0.13476,-0.67774 0,0 -0.27121,0.58734 -0.63282,0.36133 -0.36163,-0.226 -1.58203,1.22181 -1.58203,1.67383 0,0.45201 -1.71707,1.62555 -1.67187,2.16797 0.0452,0.54242 -1.13168,3.12053 -1.3125,3.21093 -0.18079,0.0904 -0.85742,-0.13672 -0.85742,-0.13672 0,0 -2.07925,0.81499 -2.21485,1.67383 -0.13561,0.85883 -0.94949,2.12277 -1.53711,1.85157 -0.58762,-0.27121 -1.26562,0.13671 -1.26562,0.13671 0,0 -0.18053,-0.94976 -0.36133,-1.49218 -0.18081,-0.54241 0.54129,-0.17997 0.49609,-0.45118 -0.0452,-0.27121 0.45312,-0.36134 0.76953,-0.0449 0.31641,0.31641 0.26954,-0.54297 0.26954,-0.54297 0,0 -1.03879,-0.99386 -0.76758,-1.03906 0.27121,-0.0452 0.54239,-3.2553 0.94922,-3.3457 0.40681,-0.0904 1.76367,-3.25391 1.76367,-3.25391 0,0 0.67801,0.0896 0.63281,-0.18164 -0.0452,-0.27121 0.22629,-1.08426 0.58789,-1.35547 0.36161,-0.27121 -0.0912,-0.94893 -0.18164,-1.31054 -0.0904,-0.36162 1.71703,-1.62724 2.62109,-1.58204 0.90403,0.0452 2.39649,-0.85937 2.39649,-0.85937 0,0 -0.27207,-2.21539 0.45117,-2.75781 0.72321,-0.54242 0.36133,-1.03907 0.36133,-1.03907 l -1.26563,0.0898 c 0,0 -1.30999,-1.22015 -1.40039,-1.62696 -0.0904,-0.40682 -0.85882,-0.81388 -0.94922,-1.2207 -0.0904,-0.40681 0.40625,-0.40625 0.40625,-0.40625 0,0 -0.22517,-0.76952 0.18165,-1.08594 0.40683,-0.31641 0.17996,-0.13447 0.13476,-0.8125 -0.0452,-0.67802 0.27204,-0.58816 0.49805,-0.85937 0.22601,-0.27121 0.22628,-0.90429 0.58789,-1.2207 0.36161,-0.31641 0.31557,-1.08454 0.13476,-1.31055 -0.1808,-0.22601 1e-5,-0.18108 -0.3164,-0.58789 -0.31641,-0.40682 -0.45202,0.27176 -0.63282,0.22656 -0.18082,-0.0452 -0.54214,-0.0901 -0.67773,0.27149 -0.13562,0.36161 -0.40625,0.49609 -0.40625,0.49609 0,0 -0.67912,0.0907 -1.08594,-0.36133 -0.40681,-0.45202 -1.40124,0.49805 -1.58203,0.18164 -0.18082,-0.31641 -0.45117,-0.94922 -0.45117,-0.94922 l 0.40625,-0.58789 c 0,0 -0.18138,-1.17577 0.40625,-1.49218 0.58762,-0.31642 0.99524,-1.08371 0.81445,-1.44532 -0.18082,-0.36162 0,-1.08594 0,-1.08594 0,0 -0.31668,-0.17994 -0.58789,-0.76757 -0.27121,-0.58762 0.22684,-0.859382 0.49805,-0.54297 0.27121,0.31642 0.58789,-0.271486 0.58789,-0.271486 l -0.22656,-1.400391 -0.76953,-0.453125 c 0,0 -0.26954,-1.536279 0.0469,-1.355469 0.31641,0.18081 0.58594,-0.18164 0.58594,-0.18164 0,0 -1.17493,-1.354621 -1.62695,-1.806641 -0.45201,-0.45202 -0.13449,-0.407911 -0.17969,-0.769531 -0.0452,-0.36161 -0.8602,-0.541308 -1.35742,-0.179688 -0.49723,0.36161 -1.49107,-0.407355 -1.35547,-0.859375 0.13561,-0.45201 -0.54159,-0.904022 -0.76758,-0.632812 -0.22601,0.27121 -1.04102,0.451172 -1.04102,0.451172 0,0 -0.90317,-0.677456 -1.40039,-0.722656 -0.49722,-0.04521 -0.27176,-1.13086 0.0899,-1.13086 0.36163,0 0.99414,-0.8125 0.99414,-0.8125 l -0.67774,-0.99414 c 0,0 0.0452,-0.407077 0,-0.904297 -0.0452,-0.49722 -0.6317,-0.226281 -0.8125,-0.587891 -0.18081,-0.36162 -1.17578,-0.181641 -1.17578,-0.181641 0,0 -0.40652,0.678295 -0.67773,0.271485 -0.27121,-0.40682 -0.81446,-0.361328 -0.81446,-0.361328 0,0 -1.67159,-0.587609 -2.0332,-0.949219 -0.36161,-0.36162 -0.9043,0.181641 -0.9043,0.181641 0,0 -1.03933,0.181091 -1.31054,-0.361329 -0.27121,-0.54242 -1.31111,-0.136426 -1.22071,-0.498047 0.0904,-0.36161 -0.94921,-0.542968 -0.94921,-0.542968 0,0 -1.26535,-0.1808 -1.31055,0 -0.0452,0.18081 -1.08538,0.542968 -1.49219,0.542968 -0.40683,0 -1.85351,-0.677734 -1.85351,-0.677734 l -1.08399,0.08984 -0.22656,-0.271484 -0.31641,-0.179688 -0.72265,-0.04492 -0.58789,-0.542969 -0.67774,0.226563 -5.0625,-2.802734 -24.13867,-6.736329 c 0,0 -0.18054,-0.722652 -0.0449,-1.039062 0.1356,-0.31641 -0.58789,-1.083985 -0.58789,-1.083985 0,0 -1.04048,-1.220421 -0.81446,-1.582031 0.22599,-0.36162 -0.36049,-0.63447 -0.49609,-1.3125 -0.13562,-0.67802 -1.31055,-0.180236 -1.31055,-0.722656 0,-0.54242 -0.58789,-0.316406 -0.58789,-0.316406 0,0 -0.54241,-0.903741 -0.94922,-0.994141 -0.40683,-0.09041 -0.49804,0.225728 -1.13086,0.361328 -0.63282,0.1356 -0.58789,-0.814453 -0.58789,-0.814453 l -0.8125,-0.134765 -1.2207,-0.722657 -1.13086,0.04492 c 0,0 -1.44668,-0.542955 -1.85351,-0.859375 -0.4068,-0.31641 -0.31473,-0.451446 -0.58594,-0.722656 -0.27121,-0.27121 -0.5893,-0.99469 -0.9961,-1.53711 -0.40683,-0.542419 -0.85742,-0.04492 -0.85742,-0.04492 l 0.99414,1.175781 c 0,0 -0.54241,0.089 -0.94922,-0.0918 -0.40683,-0.18081 -1.08507,0.994419 -1.85351,0.949219 -0.76842,-0.0452 -1.40039,0.678287 -1.7168,0.904297 -0.31641,0.22601 -1.26562,0.316406 -1.26562,0.316406 0,0 0.0435,-1.084263 0.26953,-1.039063 0.22601,0.0452 0.63309,-1.129458 0.58789,-1.355468 -0.0452,-0.22601 0.85881,-0.76925 1.26562,-1.13086 0.40682,-0.36162 -0.76758,-1.89899 -0.45117,-2.125 0.31641,-0.22601 0.4961,-0.496646 0.4961,-0.722656 0,-0.22601 0.7246,-0.270646 1.04101,-0.722656 0.31641,-0.45202 -0.36274,-0.949219 -0.13672,-0.949219 0.22599,0 0.8591,-0.225714 0.9043,-0.677734 0.0452,-0.45201 0.31641,-0.99608 0.31641,-1.3125 0,-0.31641 0.27148,-0.40625 0.27148,-0.40625 0,0 -0.54325,-0.134484 -0.49805,-0.496094 0.0452,-0.36162 -0.3164,-0.859375 -0.3164,-0.859375 0,0 -0.45062,-0.09152 -0.85743,-0.136719 -0.40679,-0.0452 -0.27148,-0.949219 -0.27148,-0.949219 z M 211.1543,108.2207 c -0.24227,-0.20764 -0.34595,1.48853 -0.48438,1.62696 -0.13842,0.13843 -0.55437,-0.0344 -0.6582,0.13867 -0.10383,0.17303 -0.13867,1.55664 -0.13867,1.55664 0,0 -0.51909,0.41456 -1.10743,0.69141 -0.58831,0.27686 -0.0335,1.31469 -0.17187,1.45312 -0.13843,0.13843 -0.3817,-0.0674 -0.3125,-0.37891 0.0692,-0.31146 -1.14179,-0.90101 -0.96875,-0.69336 0.17302,0.20764 -0.51953,1.10743 -0.51953,1.10743 0,0 -0.17145,2.49298 -0.75977,2.66601 -0.58833,0.17304 -1.03906,1.79883 -1.03906,1.79883 0,0 -1.76434,2.97674 -1.31445,3.35742 0.44991,0.38068 0,1.69531 0,1.69531 l 1.90234,1.69532 c 0.27685,0.24225 0.72686,-0.72705 0.62305,-1.00391 -0.10384,-0.27684 0.0351,-0.41467 0.27734,-0.20703 0.24224,0.20764 0.58758,-4.2e-4 0.69141,-0.51953 0.10382,-0.51911 0.38159,-0.20641 0.79687,-0.41406 0.41529,-0.20764 -0.0348,-0.69386 -0.13867,-0.97071 -0.10381,-0.27686 0.34565,-0.41454 0.58789,-0.6914 0.24225,-0.27686 0.45117,-0.55274 0.45117,-0.55274 0,0 -7.8e-4,-0.83183 -0.17382,-1.55859 -0.17304,-0.72675 1.17578,-1.79883 1.17578,-1.79883 0,0 0.2776,-1.21241 0.41601,-0.93555 0.13844,0.27686 0.65821,-0.0332 0.65821,-0.0332 0,0 -0.24359,-0.83141 -0.20899,-1.03906 0.0346,-0.20764 0.48516,0.17376 0.6582,0.41601 0.17304,0.24225 0.31224,-1.00469 0.17383,-1.17773 -0.13845,-0.17303 -0.34741,-1.17547 -0.20898,-1.2793 0.13842,-0.10382 0.6582,0.72656 0.6582,0.72656 0,0 -0.41523,-0.79687 -0.24219,-0.79687 0.17301,0 0.276,-2.0072 0.0684,-2.21484 -0.20764,-0.20765 -0.24248,-0.6922 -0.13867,-0.86524 0.10383,-0.17303 0.62305,0.69336 0.62305,0.69336 0,0 0.41541,0.82924 0.62304,0.89844 0.20762,0.0692 0.17383,-0.75977 0.17383,-0.75977 0,0 0.13844,-0.55432 0,-0.90039 -0.13841,-0.34607 0.10352,-1.14258 0.10352,-1.14258 l -1.24609,0.20703 c -10e-6,0 -0.58783,-0.58727 -0.83008,-0.79492 z"
       transform="translate(0,796.36216)"
       id="path2886"
       inkscape:connector-curvature="0"
       sodipodi:nodetypes="cccccscccccsccssccccscscccscssccccccccscccccsscccccsccccssssccscssccccsccsccccsccsccscccscsccscccccccccsccsccsccsccccccssccccccsccsccsccscccccsccssscscccsccccccsscccscsscccccsccsscscscssccscccccccccccccsccscccccscccssscssssssssscscsccccccccccccccccccccccsccccscscsccccccccc" />
    <path
       inkscape:connector-curvature="0"
       id="path4495"
       d="m 184.85377,995.37354 c -9.56906,5.52686 -12.85008,17.75576 -7.32239,27.31956 5.52065,9.569 17.74961,12.8492 27.31867,7.3223 9.56819,-5.5205 12.84922,-17.7495 7.32239,-27.3195 -5.52064,-9.56287 -17.75666,-12.84301 -27.31867,-7.32236 z"
       style="fill:#dd4814" />
    <path
       style="fill:#dd4814"
       d="m 143.90265,982.89172 c -8.79463,0 -17.13728,-1.9568 -24.61473,-5.43607 l -13.90119,24.90985 c 11.60958,5.7533 24.68522,9.0026 38.51592,9.0026 8.04485,0 15.82627,-1.1181 23.21915,-3.1647 1.30395,-8.0396 6.07571,-15.43865 13.68179,-19.83685 7.59993,-4.38497 16.38134,-4.81668 23.98831,-1.94271 14.7928,-14.54786 24.42002,-34.33181 25.82264,-56.36947 l -28.51425,-0.42026 c -2.62288,29.85873 -27.66843,53.25761 -58.19764,53.25761 z"
       id="path4489"
       inkscape:connector-curvature="0" />
  </g>
</svg>
